<?xml version="1.0" encoding="UTF-8"?><svg id="Layer_1" xmlns="http://www.w3.org/2000/svg" viewBox="0 0 380.96 380.93"><defs><style>.cls-1{stroke-width:1.5px;}.cls-1,.cls-2{fill:none;stroke:#000;stroke-miterlimit:10;}.cls-3{fill:#fff;}</style></defs><line class="cls-1" x1="221.57" y1="189.29" x2="380.92" y2="179.54"/><line class="cls-1" x1="220.51" y1="180.77" x2="372.34" y2="131.44"/><line class="cls-1" x1="217.36" y1="174.21" x2="352.75" y2="89.61"/><line class="cls-1" x1="211.79" y1="168.12" x2="321.69" y2="52.32"/><line class="cls-1" x1="205.22" y1="162.62" x2="282.61" y2="22.99"/><line class="cls-1" x1="198.43" y1="159.97" x2="239.75" y2="5.76"/><line class="cls-1" x1="159.4" y1="188.07" x2=".05" y2="178.33"/><line class="cls-1" x1="159.41" y1="196.65" x2="2.69" y2="227.11"/><line class="cls-1" x1="161.74" y1="203.55" x2="17.05" y2="271.02"/><line class="cls-1" x1="166.52" y1="210.27" x2="43.33" y2="311.82"/><line class="cls-1" x1="172.37" y1="216.54" x2="78.54" y2="345.69"/><line class="cls-1" x1="178.78" y1="219.99" x2="118.98" y2="368.01"/><line class="cls-1" x1="186.39" y1="221.79" x2="165.55" y2="380.07"/><line class="cls-1" x1="194.94" y1="222.38" x2="214.4" y2="380.83"/><line class="cls-1" x1="202.99" y1="220.54" x2="260.2" y2="369.58"/><line class="cls-1" x1="209.03" y1="216.24" x2="301.73" y2="346.21"/><line class="cls-1" x1="215.68" y1="210.83" x2="337.98" y2="313.45"/><line class="cls-1" x1="219.98" y1="204.59" x2="364.67" y2="272.06"/><line class="cls-1" x1="222.23" y1="196.65" x2="378.95" y2="227.11"/><line class="cls-1" x1="190.98" y1="159.65" x2="189.59" y2="0"/><line class="cls-1" x1="182.43" y1="160.26" x2="141.11" y2="6.05"/><line class="cls-1" x1="175.71" y1="163.06" x2="98.31" y2="23.43"/><line class="cls-1" x1="169.34" y1="168.3" x2="59.44" y2="52.49"/><line class="cls-1" x1="163.5" y1="174.58" x2="28.11" y2="89.98"/><line class="cls-1" x1="160.49" y1="181.21" x2="8.66" y2="131.88"/><rect class="cls-3" x="122.05" y="179.82" width="134.75" height="64.12"/><path d="M189.59,70.21l-113.5,100.7h25.2v107.3h176.7v-107.3h25.1l-113.5-100.7ZM152.89,233.51h-21.8v-20.8h21.8v20.8ZM152.89,211.71h-21.8v-21.8h21.8v21.8ZM174.79,233.51h-20.9v-20.8h20.8v20.8h.1ZM174.79,211.71h-20.9v-21.8h20.8v21.8h.1ZM249.59,211.71h-20.8v-21.8h20.8v21.8ZM227.79,189.91v21.8h-21.8v-21.8h21.8ZM205.99,212.71h21.8v20.8h-21.8v-20.8ZM228.79,233.51v-20.8h20.8v20.8h-20.8Z"/><line class="cls-2" x1="202.99" y1="211.88" x2="253.99" y2="211.88"/><line class="cls-2" x1="227.79" y1="239.07" x2="227.79" y2="188.07"/><line class="cls-2" x1="128.39" y1="211.88" x2="179.39" y2="211.88"/><line class="cls-2" x1="153.19" y1="239.07" x2="153.19" y2="188.07"/></svg>